<svg width="44" height="44" viewBox="0 0 44 44" fill="none" xmlns="http://www.w3.org/2000/svg">
<g opacity="0.2">
<rect width="44" height="44" rx="22" fill="#526EFF"/>
<path d="M17 14V12C17 11.7348 17.1054 11.4804 17.2929 11.2929C17.4804 11.1054 17.7348 11 18 11C18.2652 11 18.5196 11.1054 18.7071 11.2929C18.8946 11.4804 19 11.7348 19 12V14C19 14.2652 18.8946 14.5196 18.7071 14.7071C18.5196 14.8946 18.2652 15 18 15C17.7348 15 17.4804 14.8946 17.2929 14.7071C17.1054 14.5196 17 14.2652 17 14ZM12 19H14C14.2652 19 14.5196 18.8946 14.7071 18.7071C14.8946 18.5196 15 18.2652 15 18C15 17.7348 14.8946 17.4804 14.7071 17.2929C14.5196 17.1054 14.2652 17 14 17H12C11.7348 17 11.4804 17.1054 11.2929 17.2929C11.1054 17.4804 11 17.7348 11 18C11 18.2652 11.1054 18.5196 11.2929 18.7071C11.4804 18.8946 11.7348 19 12 19ZM33 23V32C33 32.2652 32.8946 32.5196 32.7071 32.7071C32.5196 32.8946 32.2652 33 32 33H18C17.7348 33 17.4804 32.8946 17.2929 32.7071C17.1054 32.5196 17 32.2652 17 32V18C17 17.7348 17.1054 17.4804 17.2929 17.2929C17.4804 17.1054 17.7348 17 18 17H27C27.2626 17.0125 27.5126 17.1161 27.707 17.293L32.707 22.293C32.887 22.4855 32.9911 22.7366 33 23ZM31 24H27C26.7348 24 26.4804 23.8946 26.2929 23.7071C26.1054 23.5196 26 23.2652 26 23V19H19V31H31V24Z" fill="white"/>
</g>
</svg>
