<svg width="24" height="24" viewBox="0 0 24 24" fill="none" xmlns="http://www.w3.org/2000/svg">
<path d="M1 18.891C1.00006 19.1562 1.10545 19.4105 1.293 19.598L4.4 22.707C4.58753 22.8945 4.84184 22.9998 5.107 22.9998C5.37216 22.9998 5.62647 22.8945 5.814 22.707L13.588 14.934L16.7 11.824C16.8875 11.6365 16.9928 11.3822 16.9928 11.117C16.9928 10.8518 16.8875 10.5975 16.7 10.41L13.59 7.3C13.4025 7.11253 13.1482 7.00721 12.883 7.00721C12.6178 7.00721 12.3635 7.11253 12.176 7.3L9.067 10.409L1.293 18.184C1.10545 18.3715 1.00006 18.6258 1 18.891ZM12.883 9.422L14.583 11.122L12.883 12.822L11.188 11.122L12.883 9.422ZM9.774 12.531L11.474 14.231L5.114 20.59L3.419 18.89L9.774 12.531ZM19.809 5.605L18.254 7.16C18.0654 7.34216 17.8128 7.44295 17.5506 7.44067C17.2884 7.4384 17.0376 7.33323 16.8522 7.14782C16.6668 6.96241 16.5616 6.7116 16.5593 6.4494C16.557 6.1872 16.6578 5.9346 16.84 5.746L18.4 4.191C18.4922 4.09549 18.6026 4.01931 18.7246 3.9669C18.8466 3.91449 18.9778 3.8869 19.1106 3.88575C19.2434 3.8846 19.3751 3.9099 19.498 3.96018C19.6208 4.01046 19.7325 4.08471 19.8264 4.17861C19.9203 4.2725 19.9945 4.38415 20.0448 4.50705C20.0951 4.62994 20.1204 4.76162 20.1193 4.8944C20.1181 5.02718 20.0905 5.1584 20.0381 5.2804C19.9857 5.40241 19.9095 5.51275 19.814 5.605H19.809ZM23 11.9C23 12.1652 22.8946 12.4196 22.7071 12.6071C22.5196 12.7946 22.2652 12.9 22 12.9H19.8C19.5348 12.9 19.2804 12.7946 19.0929 12.6071C18.9054 12.4196 18.8 12.1652 18.8 11.9C18.8 11.6348 18.9054 11.3804 19.0929 11.1929C19.2804 11.0054 19.5348 10.9 19.8 10.9H22C22.2652 10.9 22.5196 11.0054 22.7071 11.1929C22.8946 11.3804 23 11.6348 23 11.9ZM19.809 18.189C19.9137 18.2786 19.9988 18.3888 20.059 18.5129C20.1191 18.6369 20.1529 18.772 20.1583 18.9097C20.1637 19.0474 20.1406 19.1848 20.0904 19.3131C20.0402 19.4415 19.9641 19.5581 19.8667 19.6556C19.7693 19.7531 19.6528 19.8295 19.5245 19.8798C19.3962 19.9302 19.2589 19.9535 19.1212 19.9483C18.9835 19.9431 18.8483 19.9094 18.7242 19.8495C18.6001 19.7896 18.4897 19.7046 18.4 19.6L16.84 18.043C16.7445 17.9508 16.6683 17.8404 16.6159 17.7184C16.5635 17.5964 16.5359 17.4652 16.5347 17.3324C16.5336 17.1996 16.5589 17.0679 16.6092 16.945C16.6595 16.8221 16.7337 16.7105 16.8276 16.6166C16.9215 16.5227 17.0331 16.4485 17.156 16.3982C17.2789 16.3479 17.4106 16.3226 17.5434 16.3237C17.6762 16.3249 17.8074 16.3525 17.9294 16.4049C18.0514 16.4573 18.1618 16.5335 18.254 16.629L19.809 18.189ZM5.816 4.191L7.371 5.746C7.46651 5.83825 7.54269 5.94859 7.5951 6.0706C7.64751 6.1926 7.6751 6.32382 7.67625 6.4566C7.6774 6.58938 7.6521 6.72106 7.60182 6.84395C7.55154 6.96685 7.47729 7.0785 7.3834 7.17239C7.2895 7.26629 7.17785 7.34054 7.05495 7.39082C6.93206 7.4411 6.80038 7.4664 6.6676 7.46525C6.53482 7.4641 6.4036 7.43651 6.2816 7.3841C6.15959 7.33169 6.04925 7.25551 5.957 7.16L4.4 5.605C4.30716 5.51202 4.23353 5.40167 4.18334 5.28024C4.13314 5.15881 4.10735 5.02869 4.10744 4.89729C4.10754 4.7659 4.13351 4.63581 4.18388 4.51445C4.23425 4.39309 4.30802 4.28284 4.401 4.19C4.49398 4.09716 4.60433 4.02353 4.72576 3.97334C4.84719 3.92314 4.97731 3.89735 5.10871 3.89744C5.2401 3.89754 5.37019 3.92351 5.49155 3.97388C5.61291 4.02425 5.72316 4.09802 5.816 4.191ZM12.106 1C12.3712 1 12.6256 1.10536 12.8131 1.29289C13.0006 1.48043 13.106 1.73478 13.106 2V4.2C13.106 4.46522 13.0006 4.71957 12.8131 4.90711C12.6256 5.09464 12.3712 5.2 12.106 5.2C11.8408 5.2 11.5864 5.09464 11.3989 4.90711C11.2114 4.71957 11.106 4.46522 11.106 4.2V2C11.106 1.73478 11.2114 1.48043 11.3989 1.29289C11.5864 1.10536 11.8408 1 12.106 1Z" fill="white"/>
</svg>
